<svg width="34" height="34" viewBox="0 0 34 34" fill="none" xmlns="http://www.w3.org/2000/svg">
<path fill-rule="evenodd" clip-rule="evenodd" d="M0 16.6667C0 7.46167 7.46167 0 16.6667 0C25.8717 0 33.3333 7.46167 33.3333 16.6667C33.3333 25.8717 25.8717 33.3333 16.6667 33.3333C7.46167 33.3333 0 25.8717 0 16.6667ZM16.6667 18.3333C16.2246 18.3333 15.8007 18.1577 15.4882 17.8452C15.1756 17.5326 15 17.1087 15 16.6667V10C15 9.55797 15.1756 9.13405 15.4882 8.82149C15.8007 8.50893 16.2246 8.33333 16.6667 8.33333C17.1087 8.33333 17.5326 8.50893 17.8452 8.82149C18.1577 9.13405 18.3333 9.55797 18.3333 10V16.6667C18.3333 17.1087 18.1577 17.5326 17.8452 17.8452C17.5326 18.1577 17.1087 18.3333 16.6667 18.3333ZM14.1667 23.3333C14.1667 22.6703 14.4301 22.0344 14.8989 21.5656C15.3677 21.0967 16.0036 20.8333 16.6667 20.8333H16.6833C17.3464 20.8333 17.9823 21.0967 18.4511 21.5656C18.9199 22.0344 19.1833 22.6703 19.1833 23.3333V23.35C19.1833 24.013 18.9199 24.6489 18.4511 25.1178C17.9823 25.5866 17.3464 25.85 16.6833 25.85H16.6667C16.0036 25.85 15.3677 25.5866 14.8989 25.1178C14.4301 24.6489 14.1667 24.013 14.1667 23.35V23.3333Z" fill="#FF3A3A"/>
</svg>
