<svg width="1920" height="100" viewBox="0 0 1920 100" fill="none" xmlns="http://www.w3.org/2000/svg">
<path fill-rule="evenodd" clip-rule="evenodd" d="M1920 12.3979V99.9999H0V38.2526C4.39787 40.3712 9.04199 42.536 13.9637 44.7395C73.9044 71.5768 92.6766 61.5492 126.831 43.305C142.405 34.9859 161.177 24.9584 188.509 15.9385C248.334 -3.80463 267.15 3.52003 301.179 16.7678C316.792 22.8457 335.607 30.1704 363.055 36.6998C426.232 51.7291 443.675 44.9988 481.598 30.3665C496.061 24.7858 513.504 18.0556 537.6 10.9447C596.543 -6.44998 615.677 -0.348391 648.774 10.2062C664.682 15.2791 683.816 21.3807 712.146 26.3966C771.364 36.8814 790.4 33.1374 823.785 26.5713C839.6 23.4607 858.636 19.7167 886.691 16.5521C956.717 8.65307 970.555 13.4301 1018.37 29.9373C1030.15 34.0029 1043.99 38.7799 1061.24 44.2544C1123.61 64.0538 1141.41 55.551 1178.35 37.9C1193.09 30.8547 1210.88 22.352 1235.78 13.6098C1296.84 -7.83003 1315.18 0.729913 1350.58 17.2501C1365.77 24.3427 1384.11 32.9026 1410.33 41.1857C1471.45 60.4996 1489.77 52.7589 1525.24 37.7659C1540.41 31.3523 1558.72 23.6116 1584.87 16.0939C1645.67 -1.3856 1664.11 5.48809 1699.21 18.5685C1714.5 24.265 1732.94 31.1387 1759.42 37.6907C1823.52 53.553 1840.54 46.1143 1879.64 29.0262C1890.77 24.1607 1903.69 18.5129 1920 12.3979Z" fill="#FBB472"/>
</svg>
