<svg width="1920" height="100" viewBox="0 0 1920 100" fill="none" xmlns="http://www.w3.org/2000/svg">
<path fill-rule="evenodd" clip-rule="evenodd" d="M0 0V77.3359C10.9737 80.5935 23.5362 84.0894 38.4 87.7063C101.107 102.965 122.854 98.2901 157.151 90.9168C175.36 87.0021 197.107 82.3269 230.4 79.4707C298.994 73.5862 318.576 76.1109 359.187 81.3469C375.412 83.4388 394.994 85.9636 422.4 88.5577C495.264 95.4547 512.824 91.8821 559.031 82.4814C573.703 79.4964 591.264 75.9238 614.4 71.9122C681.946 60.2003 701.967 64.9696 741.34 74.3493C757.926 78.3005 777.946 83.0697 806.4 87.7698C878.146 99.621 896.273 93.758 940.925 79.3148C956.02 74.4323 974.146 68.5693 998.4 62.0786C1066.52 43.8486 1086.3 51.4901 1126.35 66.9578C1142.74 73.2884 1162.52 80.9299 1190.4 88.6452C1254.53 106.393 1275.82 100.428 1311.51 90.4267C1329.25 85.4575 1350.53 79.492 1382.4 74.9441C1451.22 65.1228 1470.7 69.3818 1511.58 78.3162C1527.73 81.8456 1547.22 86.1046 1574.4 90.5135C1648.92 102.599 1665.59 95.9221 1714.22 76.4493C1728.24 70.8358 1744.92 64.159 1766.4 56.5618C1834.14 32.6063 1854.08 42.4556 1893.67 62.0091C1901.5 65.8777 1910.11 70.1262 1920 74.5678V0H0Z" fill="#FBB472"/>
</svg>
